<?xml version="1.0" standalone="no"?>
<!DOCTYPE svg PUBLIC "-//W3C//DTD SVG 20010904//EN"
 "http://www.w3.org/TR/2001/REC-SVG-20010904/DTD/svg10.dtd">
<svg version="1.0" xmlns="http://www.w3.org/2000/svg"
 width="1024.000000pt" height="1024.000000pt" viewBox="0 0 1024.000000 1024.000000"
 preserveAspectRatio="xMidYMid meet">
<metadata>
Created by potrace 1.16, written by Peter Selinger 2001-2019
</metadata>
<g transform="translate(0.000000,1024.000000) scale(0.100000,-0.100000)"
fill="#000000" stroke="none">
<path d="M4750 9539 c-63 -5 -131 -13 -150 -19 -19 -5 -97 -17 -174 -26 -156
-18 -284 -40 -300 -53 -6 -4 -31 -11 -56 -15 -83 -12 -265 -59 -285 -72 -11
-8 -26 -14 -35 -14 -19 0 -162 -45 -186 -59 -11 -6 -54 -22 -98 -37 -43 -14
-100 -37 -126 -50 -26 -13 -52 -24 -56 -24 -19 0 -413 -195 -424 -210 -3 -4
-33 -22 -67 -40 -35 -18 -63 -37 -63 -41 0 -5 -5 -9 -12 -9 -11 0 -108 -58
-118 -71 -3 -3 -23 -18 -45 -33 -72 -48 -244 -176 -277 -206 -9 -8 -44 -37
-79 -65 -57 -46 -174 -153 -236 -215 -206 -207 -341 -366 -521 -610 -30 -41
-105 -155 -157 -241 -136 -222 -187 -314 -254 -459 -34 -74 -67 -144 -72 -155
-5 -11 -23 -60 -39 -110 -17 -49 -37 -103 -45 -120 -7 -16 -26 -75 -41 -130
-15 -55 -33 -114 -40 -131 -7 -17 -25 -91 -40 -165 -14 -74 -30 -143 -35 -154
-15 -34 -38 -191 -55 -369 -9 -94 -20 -187 -25 -206 -12 -42 -5 -490 10 -675
17 -212 58 -505 71 -515 4 -3 10 -25 14 -50 9 -59 56 -249 66 -269 4 -9 20
-61 36 -116 15 -55 32 -109 37 -120 6 -11 25 -62 43 -113 18 -52 37 -99 43
-105 5 -7 20 -41 34 -77 14 -36 38 -92 55 -125 16 -33 37 -78 46 -100 9 -21
20 -42 24 -45 4 -3 22 -34 40 -70 30 -60 80 -146 157 -270 41 -66 185 -273
199 -285 6 -6 22 -26 36 -45 13 -19 34 -46 47 -60 12 -14 45 -52 74 -85 87
-101 348 -362 459 -458 58 -50 116 -102 130 -115 13 -13 37 -30 52 -38 16 -8
28 -18 28 -22 0 -4 45 -39 101 -77 56 -39 118 -83 140 -100 21 -16 67 -48 101
-69 35 -22 83 -53 108 -69 57 -38 93 -58 205 -117 50 -26 104 -55 120 -64 50
-26 247 -113 290 -127 22 -8 42 -17 45 -20 3 -3 50 -21 105 -39 55 -18 105
-36 110 -41 13 -9 218 -69 238 -69 8 0 27 -6 42 -14 14 -8 92 -26 173 -41 81
-15 156 -31 167 -35 24 -10 128 -26 290 -46 197 -25 744 -30 955 -10 214 21
388 44 415 57 11 5 50 13 87 19 101 16 255 48 275 59 10 5 43 15 73 21 64 15
162 45 205 64 17 7 53 19 80 26 28 7 73 23 100 36 28 12 88 37 135 55 47 17
90 36 96 41 7 5 40 20 75 33 35 14 79 36 99 49 19 13 46 27 60 31 14 4 50 22
80 40 30 18 89 52 130 76 89 51 173 106 293 191 49 35 106 74 127 88 21 14 47
33 57 43 10 10 72 61 138 115 233 188 566 543 730 777 19 28 52 75 74 105 22
30 52 75 67 100 15 25 37 61 49 80 91 141 232 403 280 522 14 35 32 74 39 88
7 14 25 61 40 105 15 44 34 94 41 110 8 17 25 69 38 115 14 47 37 121 51 164
14 44 33 120 42 170 9 50 20 96 24 101 20 26 72 427 69 532 -1 38 -3 31 -10
-32 -61 -569 -197 -1042 -437 -1522 -320 -637 -791 -1186 -1382 -1610 -221
-158 -366 -246 -595 -361 -829 -415 -1791 -572 -2705 -441 -636 91 -1235 313
-1765 653 -372 240 -749 568 -1040 906 -503 585 -857 1373 -971 2160 -36 249
-43 377 -39 695 4 328 21 500 76 770 120 592 279 991 598 1500 449 717 1125
1311 1881 1653 414 188 812 305 1240 366 437 62 709 69 1195 30 47 -3 65 -2
55 4 -42 27 -673 41 -950 21z"/>
<path d="M5805 9494 c491 -75 973 -225 1370 -427 107 -54 300 -171 350 -211
l30 -25 -32 -32 -32 -33 -23 20 c-63 55 -310 194 -488 275 -371 168 -848 302
-1260 353 -238 30 -623 44 -648 24 -12 -10 -14 -10 -9 -1 11 18 -258 7 -433
-17 -41 -6 -97 -13 -125 -16 -27 -3 -72 -9 -100 -14 -27 -5 -66 -12 -85 -15
-19 -3 -42 -8 -51 -11 -9 -2 -34 -7 -55 -10 -22 -2 -84 -16 -139 -30 -55 -14
-108 -27 -117 -29 -156 -33 -526 -169 -769 -283 -399 -188 -817 -482 -1151
-810 -64 -63 -143 -131 -175 -152 -91 -58 -163 -148 -193 -245 -7 -22 -34 -65
-60 -95 -54 -63 -220 -304 -220 -320 0 -5 -4 -10 -10 -10 -5 0 -10 -9 -10 -20
0 -11 -4 -20 -9 -20 -9 0 -55 -74 -96 -155 -11 -22 -28 -51 -37 -65 -10 -14
-24 -44 -32 -67 -14 -39 -14 -41 7 -47 14 -3 26 2 36 17 20 28 81 128 81 133
0 5 103 178 110 184 3 3 14 22 25 43 11 21 28 45 38 54 9 9 17 22 17 30 0 7 4
13 8 13 5 0 26 27 47 60 21 32 43 56 48 53 6 -3 7 -2 4 4 -4 6 -1 18 7 28 11
15 13 12 14 -30 1 -26 9 -80 17 -119 8 -39 15 -76 15 -82 0 -10 -128 -103
-237 -172 -33 -21 -53 -41 -53 -52 0 -22 32 -123 79 -250 l31 -84 -49 -116
c-146 -340 -244 -708 -303 -1130 -28 -206 -30 -676 -4 -900 93 -776 372 -1449
830 -1997 110 -132 348 -375 486 -497 128 -113 377 -313 635 -510 249 -190
274 -209 340 -255 161 -114 196 -134 226 -133 28 1 174 41 225 62 14 5 65 -3
160 -26 732 -180 1373 -186 2074 -18 787 188 1486 605 2035 1214 418 464 665
892 833 1445 189 620 220 1326 87 1977 -43 210 -109 437 -187 643 -86 228 -87
229 -80 240 7 11 12 32 14 53 1 6 8 12 17 12 14 0 14 2 1 10 -13 9 -13 11 0
20 11 7 11 10 2 10 -10 0 -10 5 -2 20 6 11 8 20 4 20 -4 0 1 9 11 20 10 11 13
20 7 20 -21 0 -13 37 11 49 12 6 15 10 6 7 -12 -3 -16 5 -16 41 -1 39 2 46 25
54 14 5 31 8 38 5 6 -2 38 -55 69 -118 32 -62 61 -117 65 -123 17 -23 151
-370 194 -503 87 -267 153 -579 187 -892 16 -145 16 -652 0 -815 -50 -500
-176 -962 -386 -1410 -58 -125 -64 -150 -37 -164 24 -13 35 3 104 154 156 339
301 797 332 1045 2 19 9 55 14 80 21 89 44 339 50 530 30 883 -162 1626 -622
2410 -53 91 -99 175 -102 188 -5 16 0 29 16 44 25 24 22 26 88 -73 370 -555
609 -1222 696 -1939 8 -63 14 -96 15 -72 2 87 -52 495 -69 517 -4 6 -13 39
-19 75 -16 86 -50 221 -61 241 -5 9 -21 61 -35 115 -15 55 -33 110 -41 124 -7
14 -27 63 -43 110 -84 240 -235 544 -385 776 -25 38 -49 74 -54 80 -15 17 -47
81 -76 153 -24 60 -25 66 -9 83 9 10 13 21 10 25 -4 3 9 16 29 27 60 34 79 68
77 137 -1 49 -7 70 -35 116 -36 60 -104 124 -144 135 -28 7 -94 -8 -94 -23 0
-9 -30 -7 -62 6 -24 10 -66 75 -73 114 -7 41 8 66 85 141 84 81 89 127 24 225
-64 98 -149 120 -225 60 -44 -35 -69 -44 -69 -25 0 24 -38 6 -86 -41 l-51 -50
-30 25 c-37 31 -71 33 -105 6 l-25 -19 -29 24 c-25 22 -28 30 -26 77 3 77 -12
111 -76 168 -49 43 -62 50 -99 50 -38 0 -43 -3 -49 -27 -10 -48 -13 -53 -31
-60 -10 -3 -38 -15 -63 -26 -25 -11 -52 -19 -60 -18 -8 1 -44 22 -80 45 -137
91 -179 116 -285 170 -61 31 -114 60 -120 64 -5 4 -35 18 -65 31 -30 14 -86
39 -125 56 -38 18 -95 40 -125 50 -30 9 -68 23 -85 30 -52 22 -148 53 -190 60
-22 4 -45 12 -51 17 -13 10 -91 31 -214 58 -47 10 -112 25 -146 34 -74 18
-327 56 -369 55 -16 -1 11 -7 60 -15z m-410 -119 c146 -7 154 -8 355 -36 462
-64 889 -190 1285 -378 98 -47 275 -147 404 -228 l24 -15 -108 -108 -109 -109
-25 18 c-14 10 -47 28 -72 40 -45 21 -47 23 -52 74 -10 83 -35 143 -83 196
-80 89 -220 134 -295 96 -19 -10 -53 -38 -76 -63 l-41 -45 -134 46 c-308 105
-695 181 -1053 208 -174 13 -539 7 -690 -11 -610 -71 -1197 -264 -1690 -553
-224 -131 -566 -393 -698 -534 l-28 -30 -52 54 c-60 64 -92 83 -165 98 l-53
11 88 84 c84 81 291 260 378 327 61 46 360 244 442 292 120 69 400 203 538
257 242 95 632 211 800 237 17 3 73 12 125 20 193 31 336 46 545 56 156 7 223
6 440 -4z m185 -499 c207 -24 274 -37 535 -98 76 -18 264 -77 328 -103 17 -7
15 -12 -17 -44 -19 -20 -46 -61 -60 -92 l-25 -57 -63 -11 c-35 -5 -82 -13
-105 -17 l-41 -6 -27 53 c-34 67 -94 148 -134 181 -86 73 -221 105 -327 79
-34 -9 -49 -9 -60 0 -7 6 -58 13 -113 16 -89 5 -101 4 -107 -11 -11 -29 14
-41 96 -44 l80 -4 -50 -56 c-59 -66 -89 -139 -97 -236 l-6 -69 -23 63 c-42
117 -155 249 -251 293 l-48 22 38 3 c28 2 37 8 37 22 0 22 -19 30 -73 30 -49
0 -72 -12 -64 -33 4 -11 -5 -16 -41 -21 -26 -4 -74 -20 -107 -36 -155 -74
-244 -244 -245 -461 l0 -87 -36 -7 c-20 -3 -37 -5 -39 -3 -1 2 -10 28 -20 58
-25 80 -97 191 -163 251 -77 71 -147 101 -243 107 -74 4 -80 3 -149 -34 -86
-46 -148 -112 -190 -200 -36 -74 -60 -188 -60 -280 0 -60 -2 -64 -22 -64 -13
0 -32 -3 -44 -6 -19 -5 -23 2 -37 63 -34 138 -128 275 -220 321 -25 12 -74 28
-108 34 l-62 11 104 53 c434 224 860 354 1379 419 63 8 140 16 170 19 113 8
589 -4 710 -18z m1333 -96 c42 -37 62 -100 52 -166 -4 -31 -10 -43 -17 -36 -7
7 -6 18 2 33 7 13 -34 -22 -91 -78 -112 -111 -144 -133 -52 -36 60 62 103 116
103 128 0 4 -36 -27 -81 -69 -44 -42 -85 -76 -91 -76 -6 0 -27 13 -47 28 -20
16 -44 32 -53 35 -28 10 -22 21 43 84 34 32 78 76 98 98 92 100 86 98 134 55z
m1612 -19 c106 -65 141 -160 89 -238 -23 -36 -32 -27 -30 31 0 30 4 52 9 49 4
-2 7 -2 7 1 0 9 -58 36 -76 36 -9 0 -33 -12 -52 -27 -20 -15 -32 -21 -28 -15
13 22 -6 12 -26 -13 -11 -14 -23 -23 -28 -20 -5 3 -10 -2 -12 -12 -2 -14 -10
-11 -41 17 -21 18 -37 39 -35 46 2 7 36 47 77 89 79 81 96 87 146 56z m-955
-181 c-39 -36 -59 -48 -73 -44 -16 5 -18 2 -12 -15 4 -12 2 -21 -4 -21 -6 0
-11 5 -11 11 0 5 -5 7 -11 3 -6 -3 -8 -15 -5 -27 3 -14 2 -17 -6 -9 -8 8 -16
4 -30 -13 -11 -14 -25 -24 -31 -22 -7 1 -11 -6 -11 -15 1 -10 -2 -16 -6 -13
-5 3 -25 -6 -46 -20 -38 -26 -54 -31 -54 -16 0 4 66 77 147 160 l146 152 31
-30 30 -31 -54 -50z m-1731 64 c152 -76 247 -343 199 -556 l-12 -53 -7 75
c-30 342 -293 611 -451 462 -16 -14 -28 -21 -28 -16 0 6 15 24 33 41 80 77
173 93 266 47z m2381 -71 c94 -94 190 -205 209 -241 6 -11 5 -21 -5 -30 -11
-10 -32 4 -116 77 -57 50 -139 124 -182 165 l-80 76 24 25 c13 14 30 25 38 25
8 0 58 -44 112 -97z m-3128 30 c68 -34 148 -147 174 -247 16 -58 19 -222 4
-231 -5 -3 -14 14 -20 37 -73 283 -212 438 -359 398 -46 -12 -87 -42 -112 -84
-11 -19 -19 -24 -19 -15 0 21 72 102 114 128 64 40 156 46 218 14z m2788 -183
c145 -130 319 -304 296 -296 -12 4 -24 -2 -38 -20 -16 -20 -23 -23 -30 -12
-10 13 -7 0 7 -35 3 -7 -6 -24 -20 -37 -30 -28 -33 -22 -5 10 13 15 17 27 11
33 -14 14 -62 -43 -55 -65 3 -10 0 -18 -6 -18 -6 0 -8 5 -5 10 14 23 -15 7
-39 -21 -14 -17 -26 -27 -26 -23 0 4 -13 -5 -29 -20 l-29 -28 -183 183 c-164
164 -180 183 -161 190 15 6 22 17 22 34 0 29 14 33 29 8 6 -10 11 -12 11 -5 0
6 4 12 9 12 5 0 11 -6 14 -12 2 -7 2 -1 0 13 -2 15 2 31 12 39 12 10 13 16 4
27 -10 11 -8 12 15 3 34 -13 33 -13 40 6 4 9 1 23 -6 32 -12 14 -10 14 12 2
24 -13 25 -12 7 7 -17 19 -16 20 12 20 16 0 28 -5 27 -11 -2 -6 -1 -8 1 -3 3
4 10 4 16 1 7 -4 0 6 -14 22 -58 65 -80 117 -31 73 15 -14 74 -67 132 -119z
m-3682 15 c52 -22 129 -100 162 -166 86 -169 110 -386 57 -509 -15 -35 -15
-35 -15 52 -1 238 -135 501 -285 557 -77 29 -173 5 -224 -57 -13 -15 -23 -22
-23 -16 0 22 90 112 132 133 52 25 142 28 196 6z m2472 -102 c14 -10 34 -26
45 -36 25 -23 58 -31 101 -24 18 3 34 5 34 4 0 -1 11 -33 25 -71 14 -38 25
-78 25 -89 0 -20 0 -20 -23 1 -29 27 -38 27 -78 3 -30 -18 -35 -19 -62 -5 -16
9 -39 13 -52 10 -30 -8 -137 -112 -159 -155 -17 -33 -17 -34 3 -62 38 -51 23
-80 -25 -48 -48 31 -75 25 -136 -34 -99 -95 -104 -78 77 -254 87 -84 156 -155
153 -159 -3 -3 -15 6 -26 20 -10 14 -22 23 -26 19 -3 -3 3 -13 15 -21 11 -8
18 -20 15 -28 -3 -8 0 -11 10 -7 19 7 18 -7 -3 -24 -10 -8 -12 -12 -5 -8 19
10 15 -35 -5 -58 -16 -19 -16 -20 -1 -14 26 9 37 -52 12 -70 -10 -7 -21 -13
-24 -13 -3 0 -23 40 -44 89 -20 50 -43 94 -50 100 -16 13 -188 -27 -183 -43 4
-12 54 -14 108 -3 l36 7 30 -62 c17 -35 36 -80 43 -100 13 -36 13 -37 -21 -65
-18 -15 -72 -61 -118 -101 -47 -40 -90 -71 -96 -69 -16 6 -52 74 -91 177 -20
52 -57 142 -81 200 -25 58 -47 110 -50 116 -2 6 7 14 21 18 41 10 31 28 -11
20 -56 -9 -264 -55 -658 -144 -545 -124 -538 -122 -575 -183 -32 -51 -30 -56
68 -302 l20 -51 -106 1 c-98 0 -111 -2 -162 -29 -30 -15 -86 -52 -125 -80 -85
-64 -85 -64 -315 -120 -102 -25 -439 -108 -750 -185 -311 -77 -642 -158 -737
-181 -115 -28 -173 -46 -177 -56 -6 -16 60 -215 237 -714 58 -162 119 -335
137 -385 38 -108 218 -597 302 -820 33 -88 82 -214 110 -280 67 -159 111 -265
168 -410 47 -118 228 -533 309 -710 23 -50 49 -95 57 -102 13 -9 38 -4 128 29
142 51 362 129 646 228 124 43 290 101 369 129 80 29 152 49 162 46 23 -8 180
25 319 65 136 40 352 92 357 86 5 -5 -11 -9 -153 -45 -45 -12 -122 -34 -170
-50 -49 -16 -143 -41 -209 -56 -134 -32 -143 -42 -18 -22 50 8 84 10 86 4 1
-5 36 -2 82 7 44 10 143 30 220 46 77 16 167 38 199 50 33 11 61 18 63 16 8
-7 -160 -68 -217 -78 -30 -6 -65 -14 -77 -19 -25 -9 -30 -38 -11 -57 22 -22
47 -13 64 23 9 19 19 33 23 31 9 -6 103 20 154 42 25 11 64 23 88 26 41 5 42
5 14 -5 -106 -40 -175 -73 -168 -80 5 -5 26 -1 49 10 41 20 174 55 181 48 2
-2 -23 -12 -54 -21 -32 -10 -80 -27 -108 -38 -77 -31 -81 -32 -73 -23 9 10
-40 37 -53 29 -5 -3 -7 -15 -5 -27 4 -27 44 -32 96 -11 19 7 71 22 115 33 138
35 132 34 113 21 -14 -9 -82 -34 -227 -86 -8 -2 -12 -6 -10 -9 3 -2 67 12 144
30 76 19 140 33 143 31 2 -3 -47 -20 -109 -39 -63 -19 -130 -40 -149 -46 -70
-21 48 -1 174 30 66 16 121 27 124 24 6 -5 -10 -11 -155 -60 -62 -20 -113 -39
-113 -41 0 -6 58 6 155 32 92 25 155 32 105 13 -137 -52 -210 -83 -206 -86 2
-2 57 12 121 32 172 52 172 36 2 -26 -92 -33 -59 -33 49 0 110 33 164 45 164
37 0 -3 -18 -10 -40 -16 -43 -12 -210 -86 -210 -94 0 -5 114 38 141 54 9 5 34
11 55 14 l39 6 -35 -14 c-49 -19 -131 -69 -100 -60 14 3 37 13 52 20 15 8 62
16 105 19 l78 5 -65 -19 c-81 -24 -185 -63 -146 -56 89 18 242 45 251 44 17
-1 -67 -29 -138 -46 -37 -9 -65 -18 -63 -20 3 -3 107 12 231 32 74 13 -197
-99 -505 -208 -102 -36 -320 -114 -485 -173 -269 -95 -398 -141 -740 -260 -55
-20 -245 -87 -423 -150 -177 -63 -324 -114 -326 -114 -42 0 -334 494 -567 960
-193 385 -356 753 -556 1250 -139 344 -311 817 -563 1545 -78 226 -171 493
-207 595 -35 102 -121 351 -189 553 -133 390 -135 398 -92 452 30 38 67 54
211 86 73 16 157 36 187 44 48 12 220 49 659 141 102 22 125 24 132 13 20 -31
8 -58 -41 -99 -28 -24 -57 -55 -65 -71 -17 -32 -19 -43 -6 -35 4 3 6 -6 3 -19
-2 -14 -8 -28 -12 -30 -11 -7 8 -73 32 -113 11 -18 43 -46 72 -62 123 -71 285
-11 324 120 14 48 26 185 27 303 0 90 2 98 20 102 11 2 97 20 190 39 94 20
291 60 439 91 148 31 270 54 273 52 2 -3 6 -20 9 -39 6 -33 3 -37 -44 -71 -70
-52 -92 -117 -68 -201 44 -152 242 -196 362 -81 48 45 65 95 63 177 -1 29 2
103 6 165 l8 112 51 10 c28 6 175 36 326 66 151 31 412 82 580 115 277 53 306
57 318 42 25 -33 14 -69 -33 -107 -73 -60 -82 -150 -24 -238 67 -101 196 -122
302 -49 67 45 75 74 81 283 l6 184 212 42 c246 48 255 49 288 26z m-3328 -76
c94 -57 158 -195 158 -342 l0 -83 -77 -17 c-43 -9 -90 -20 -105 -25 -22 -7
-28 -6 -28 5 0 14 31 25 120 42 l45 9 -2 45 c-3 60 -27 121 -81 203 -78 119
-166 153 -272 105 l-45 -20 30 32 c66 70 184 91 257 46z m5453 -79 c85 -75
131 -189 100 -249 -19 -36 -35 -37 -35 -2 0 50 -51 132 -123 199 -68 63 -68
63 -48 83 26 26 49 19 106 -31z m-4865 -74 c-14 -98 -13 -154 3 -154 7 0 62 9
122 20 120 22 154 25 140 11 -6 -5 -136 -35 -290 -66 -154 -32 -283 -59 -287
-62 -5 -2 -8 2 -8 11 0 14 53 29 226 66 l52 11 1 69 c1 66 8 99 33 147 17 35
19 23 8 -53z m-994 41 c106 -44 186 -161 230 -333 28 -112 32 -229 8 -299 -24
-73 -29 -69 -30 20 -2 138 -15 190 -87 337 -42 85 -155 200 -213 218 -83 24
-140 11 -209 -49 l-39 -34 26 38 c29 43 94 95 135 107 46 14 141 11 179 -5z
m4729 -184 c82 -81 97 -101 74 -101 -5 0 -7 -4 -4 -10 3 -5 1 -10 -5 -10 -6 0
-8 -5 -4 -12 5 -8 2 -9 -9 -5 -10 4 -17 2 -17 -4 0 -6 -6 -9 -14 -6 -8 3 -20
-2 -28 -11 -12 -15 -11 -16 5 -3 10 8 17 9 17 3 0 -6 -5 -14 -10 -17 -6 -4 -7
-12 -4 -18 5 -8 3 -8 -7 1 -16 14 -33 16 -24 2 10 -17 -1 -11 -40 20 -21 17
-73 48 -116 69 l-78 39 77 76 c42 42 83 75 89 74 7 -2 51 -41 98 -87z m-5549
23 c76 -36 157 -161 183 -282 12 -59 15 -175 4 -186 -4 -3 -23 40 -43 97 -46
131 -87 202 -149 260 -71 66 -134 81 -207 48 -49 -22 -78 -51 -110 -111 -24
-45 -24 -24 1 36 19 46 80 109 128 133 52 26 144 28 193 5z m6323 -105 c66
-63 121 -120 121 -126 0 -5 -16 -24 -35 -42 -40 -36 -42 -43 -16 -80 l20 -27
-54 -60 -54 -59 -117 120 c-64 66 -132 137 -152 158 l-36 37 59 60 c33 33 65
60 72 60 7 0 13 7 13 17 0 14 3 14 22 -3 19 -15 20 -16 9 -1 -12 15 -9 21 10
19 3 -1 4 11 1 25 -3 15 -1 24 5 22 6 -2 65 -56 132 -120z m-1635 5 l80 -75
-31 -31 -32 -32 -80 79 c-45 43 -81 84 -81 91 0 12 39 43 55 43 6 0 46 -34 89
-75z m-4131 -100 l-6 -105 39 7 c21 4 77 15 124 24 49 10 89 14 94 9 5 -5 8
-10 5 -12 -2 -3 -65 -16 -139 -30 -74 -15 -184 -38 -244 -52 -128 -29 -126
-29 -126 -10 0 8 7 15 16 15 9 0 56 9 104 21 l87 20 7 74 c6 67 28 145 41 145
3 0 2 -48 -2 -106z m4666 31 c267 -63 432 -325 366 -580 -23 -86 -62 -151
-135 -226 -115 -117 -229 -167 -381 -168 -71 0 -89 2 -76 10 10 6 27 9 38 6
10 -3 22 -1 25 4 3 5 18 9 34 9 20 0 35 8 46 24 8 14 30 28 47 31 80 17 247
140 247 181 0 9 5 12 10 9 6 -3 10 4 10 16 0 19 -4 16 -29 -18 -39 -54 -102
-104 -183 -146 -38 -20 -68 -33 -68 -31 0 3 7 16 16 29 9 14 26 57 39 96 19
60 27 74 52 84 16 7 58 45 94 85 35 40 79 89 97 109 l34 36 -6 -35 c-5 -30 -4
-32 6 -15 7 11 12 47 12 80 1 50 -5 70 -32 116 -42 75 -118 143 -198 181 -52
24 -83 32 -153 36 l-88 5 -13 -61 c-12 -57 -11 -83 5 -142 6 -23 5 -24 -8 -7
-19 23 -24 22 -99 -11 -79 -36 -119 -70 -154 -130 -34 -60 -33 -59 -44 -42
-17 26 12 135 51 191 10 14 16 29 14 33 -3 3 -2 4 1 2 4 -3 29 12 58 34 28 21
77 50 109 65 105 50 72 57 -42 10 -58 -24 -151 -98 -151 -120 0 -7 -4 -15 -8
-17 -31 -12 -112 -166 -112 -213 0 -13 -28 -35 -44 -35 -13 0 -4 103 14 162
53 172 207 315 381 352 85 19 140 19 218 1z m-804 -79 l70 -63 -36 -40 -37
-41 -71 72 -72 73 32 31 c18 18 36 32 39 32 3 0 37 -29 75 -64z m1366 -22 c9
-12 24 -15 52 -11 42 6 43 9 -22 -62 -23 -24 -41 -48 -41 -53 0 -4 -6 -8 -13
-8 -16 0 -51 -37 -61 -65 -7 -17 -11 -14 -31 25 -13 25 -24 52 -25 61 0 18 98
127 116 128 6 1 18 -6 25 -15z m-514 -139 c59 -30 133 -105 133 -135 0 -25
-78 -112 -93 -103 -5 3 -7 2 -4 -4 4 -6 0 -18 -7 -28 -12 -16 -16 -13 -49 40
-60 97 -120 222 -114 239 10 25 75 20 134 -9z m1170 -197 c-48 -62 -547 -549
-557 -543 -6 3 -10 11 -10 16 0 6 4 8 9 5 5 -3 12 1 15 9 5 13 2 14 -15 4 -18
-9 -26 -7 -47 14 l-25 26 138 133 c77 73 209 201 293 285 l155 151 34 -33 35
-34 -25 -33z m-2533 0 c49 -101 52 -97 -119 -138 -82 -20 -162 -40 -178 -43
-26 -7 -29 -4 -62 70 -25 54 -32 79 -24 84 6 4 50 14 96 24 47 9 117 25 157
35 101 27 101 27 130 -32z m2172 -44 c13 -30 12 -31 -54 -97 -37 -37 -71 -67
-75 -67 -9 0 -82 80 -82 91 0 4 36 44 79 89 l79 80 20 -32 c11 -18 26 -47 33
-64z m-960 -133 c19 -51 31 -98 28 -103 -18 -28 -197 23 -211 59 -3 8 16 69
42 135 l48 121 30 -59 c17 -32 45 -101 63 -153z m1548 137 c35 -124 49 -324
27 -381 -6 -16 -11 -41 -11 -55 0 -15 -7 -38 -16 -50 -8 -12 -12 -22 -8 -22 4
0 -5 -11 -20 -25 -42 -39 -42 -40 -12 87 26 114 30 212 11 322 -14 81 -15 103
-4 122 16 30 25 30 33 2z m-1751 0 c-5 -7 -32 -42 -58 -78 -27 -36 -62 -77
-78 -92 -16 -15 -26 -32 -22 -38 4 -6 1 -9 -7 -8 -8 2 -12 -5 -11 -17 1 -11 0
-14 -3 -7 -6 14 -140 -116 -136 -131 1 -5 -2 -6 -7 -3 -13 9 -82 -54 -74 -67
3 -5 1 -7 -4 -4 -6 4 -16 0 -23 -8 -10 -12 -10 -19 1 -32 13 -16 12 -17 -4 -4
-16 12 -21 12 -45 -6 -20 -16 -27 -28 -25 -52 2 -28 0 -30 -14 -16 -14 14 -17
14 -34 -1 -11 -9 -19 -13 -19 -9 0 4 -8 1 -17 -7 -17 -14 -22 -11 -70 42 l-52
57 32 30 c18 17 106 90 197 163 138 111 185 142 285 190 66 32 135 70 154 84
38 29 49 33 34 14z m-1439 -26 c8 -16 24 -52 34 -80 l20 -50 -77 -21 c-42 -11
-116 -29 -166 -40 -185 -41 -392 -90 -440 -105 -27 -9 -55 -16 -61 -16 -27 0
-58 119 -39 150 13 21 65 39 220 74 88 20 232 54 320 75 88 21 163 39 167 40
4 0 14 -12 22 -27z m529 -176 c43 -111 45 -121 17 -106 -22 12 -33 8 -68 -23
-20 -19 -27 -20 -67 -9 -25 7 -59 12 -77 12 -33 0 -118 -44 -118 -60 0 -6 -3
-10 -7 -10 -9 0 -88 199 -82 205 6 5 329 83 349 84 10 1 28 -31 53 -93z
m-4434 -43 c1 -7 49 -147 107 -310 119 -332 173 -488 328 -933 444 -1276 558
-1580 809 -2160 265 -611 496 -1071 755 -1502 181 -302 203 -328 269 -328 41
0 103 19 103 32 0 6 3 8 7 5 3 -4 12 -2 19 4 8 6 28 15 46 19 18 5 65 21 103
35 39 14 75 28 80 29 6 2 17 6 25 9 48 21 103 36 111 31 5 -3 9 0 9 6 0 6 6
10 13 9 13 -2 40 6 68 21 9 5 33 12 53 15 20 4 36 11 36 15 0 8 106 44 130 43
8 0 21 5 29 11 7 6 30 16 50 24 130 48 207 72 219 67 7 -3 31 4 52 15 22 11
47 20 57 21 14 0 14 2 4 6 -9 3 23 18 69 34 47 15 88 25 92 23 5 -3 8 -1 8 3
0 5 15 14 33 20 17 6 133 47 257 91 124 44 254 89 290 100 36 11 107 37 158
56 70 28 260 86 280 86 8 0 0 -19 -10 -23 -32 -11 57 5 121 23 37 10 63 8 50
-4 -5 -5 -254 -97 -349 -129 -41 -14 -136 -47 -210 -72 -135 -47 -168 -58
-575 -200 -121 -43 -323 -112 -450 -155 -246 -84 -629 -216 -864 -299 -169
-59 -206 -63 -243 -23 -43 46 -107 139 -101 146 4 3 0 6 -7 6 -7 0 -10 3 -7 7
4 3 1 13 -6 22 -8 9 -40 61 -72 116 -32 55 -70 120 -85 145 -154 251 -427 806
-630 1280 -209 489 -478 1213 -785 2120 -51 151 -139 406 -195 565 -56 160
-126 364 -156 454 -30 90 -62 176 -70 190 l-15 26 5 -27 c3 -14 9 -33 12 -42
3 -9 2 -16 -2 -16 -5 0 -29 51 -53 113 -25 61 -59 140 -77 175 l-31 64 46 33
46 34 22 -57 c12 -31 22 -63 22 -69z m-133 0 c81 -190 256 -701 253 -740 -1
-16 -63 147 -135 352 -40 116 -89 254 -109 308 -19 55 -35 103 -35 108 0 19
10 8 26 -28z m4144 -45 c17 -46 35 -93 40 -106 11 -25 17 -19 -99 -108 -81
-61 -119 -80 -186 -93 l-44 -8 -58 146 c-32 80 -58 150 -58 155 0 10 306 92
352 95 18 1 26 -12 53 -81z m-427 -100 c47 -110 83 -215 76 -222 -3 -3 -35
-13 -71 -22 l-65 -16 -113 43 c-70 27 -117 51 -125 63 -17 29 -60 155 -54 161
5 4 282 72 305 74 7 1 27 -36 47 -81z m2611 -148 c39 -52 83 -113 98 -136 36
-56 124 -232 191 -384 97 -220 103 -230 115 -218 7 7 14 9 17 6 7 -6 -102
-108 -116 -108 -5 0 -9 7 -9 15 0 18 -21 20 -38 3 -7 -7 -12 -8 -12 -4 0 5 6
14 14 20 12 9 11 19 -4 66 -10 30 -21 68 -25 84 -5 23 -8 27 -16 15 -6 -10 -9
-5 -9 19 0 17 -3 32 -8 32 -4 0 -13 9 -20 21 -11 17 -11 20 0 14 7 -3 6 -1 -2
7 -9 7 -33 47 -54 88 -78 152 -239 373 -350 479 -26 25 -32 37 -23 43 17 11
29 10 22 -2 -11 -18 1 -11 21 12 10 12 13 18 5 13 -10 -6 -12 -2 -6 15 5 17 4
21 -6 14 -7 -4 2 11 21 34 l35 42 44 -47 c24 -27 76 -91 115 -143z m-1657 63
c97 -87 373 -396 373 -418 0 -8 -464 463 -468 476 -10 25 27 2 95 -58z m2280
-25 c62 -65 93 -116 93 -155 l0 -34 -64 55 c-36 30 -77 62 -91 72 -42 28 -68
114 -33 114 5 0 6 5 2 11 -14 24 54 -22 93 -63z m-2470 21 c70 -47 315 -297
416 -423 48 -60 87 -113 87 -117 0 -3 -15 -23 -33 -43 -26 -28 -36 -33 -45
-24 -18 18 -14 33 13 48 34 18 31 40 -14 97 -46 58 -167 173 -175 166 -6 -7
14 -44 33 -59 8 -6 12 -17 9 -24 -5 -15 -113 79 -285 247 -56 55 -106 97 -109
94 -4 -3 -4 0 0 6 6 10 15 10 43 -2 19 -8 37 -15 40 -15 11 0 -21 42 -43 56
-21 15 -29 15 -52 3 -15 -7 -30 -15 -34 -17 -20 -9 -5 26 15 36 33 17 81 7
134 -29z m-127 -99 c90 -67 212 -183 301 -287 125 -144 149 -184 59 -98 -41
39 -80 77 -87 85 -12 13 -14 13 -23 -2 -6 -9 -17 -24 -25 -32 -17 -17 -19 -33
-6 -38 5 -1 3 -12 -6 -23 -15 -20 -15 -20 -9 2 6 18 4 20 -14 16 -11 -3 -20 0
-20 6 0 6 -5 11 -10 11 -6 0 -8 -11 -4 -26 6 -22 -7 -13 -68 47 -42 41 -107
101 -146 134 -39 33 -71 65 -71 71 -1 7 11 19 27 29 15 10 42 33 61 53 l34 36
-34 28 c-51 42 -20 33 41 -12z m2220 14 c-1 -4 4 -10 11 -15 10 -6 10 -11 -2
-25 -8 -10 -9 -15 -4 -12 15 9 24 1 70 -59 21 -29 47 -56 57 -59 15 -4 18 -17
18 -80 0 -41 7 -107 16 -146 13 -58 14 -74 3 -94 -12 -24 -13 -24 -27 18 -33
101 -162 375 -194 416 -14 16 8 43 29 35 10 -4 14 -2 10 4 -4 6 -4 19 0 29 6
16 17 6 13 -12z m-3180 -111 c84 -30 292 -112 298 -118 9 -8 -44 -55 -56 -50
-10 4 -12 0 -8 -11 4 -12 2 -15 -9 -10 -9 3 -15 0 -15 -10 0 -8 -4 -12 -10 -9
-5 3 -10 -1 -10 -9 0 -10 -6 -13 -17 -9 -10 4 -14 2 -10 -4 9 -14 -19 -37 -32
-28 -6 3 -8 0 -5 -9 3 -9 -2 -17 -15 -21 -12 -3 -21 -11 -21 -17 0 -5 -8 -7
-17 -4 -10 4 -15 4 -11 1 3 -4 -1 -15 -10 -25 -13 -16 -19 -17 -31 -7 -12 9
-13 9 -7 -1 5 -8 -5 -25 -27 -47 l-35 -35 -26 61 c-46 108 -53 110 -48 16 2
-45 0 -93 -5 -105 -8 -21 -12 -17 -37 45 -15 37 -36 79 -47 93 l-21 25 8 -30
c3 -16 8 -52 10 -78 3 -40 1 -48 -12 -43 -12 4 -12 2 -4 -14 14 -26 13 -33 -5
-26 -8 3 -15 2 -15 -2 0 -4 -3 -18 -5 -32 l-6 -25 11 24 c12 28 25 22 15 -8
-3 -12 -13 -21 -21 -21 -8 0 -12 -5 -9 -10 8 -13 -14 -42 -26 -34 -5 3 -9 -5
-9 -16 0 -16 -4 -20 -16 -16 -12 5 -15 2 -10 -10 5 -14 4 -15 -9 -4 -13 11
-15 10 -9 -6 4 -15 1 -14 -17 6 -18 20 -21 21 -15 5 13 -32 19 -105 10 -105
-5 0 -15 -13 -22 -30 -8 -16 -18 -30 -23 -30 -6 0 -7 5 -4 10 3 6 1 10 -5 10
-6 0 -10 -6 -9 -12 6 -50 -3 -50 -36 -1 -41 61 -62 78 -51 42 4 -13 9 -47 13
-74 5 -43 1 -56 -23 -97 -17 -28 -34 -46 -42 -43 -7 3 -10 1 -7 -4 3 -5 -23
-43 -57 -84 -35 -41 -88 -105 -118 -142 -134 -165 -263 -311 -236 -266 12 19
-24 19 -37 1 -23 -33 -141 -105 -156 -95 -5 3 -12 1 -16 -5 -3 -5 -10 -10 -16
-10 -14 0 13 57 89 187 153 260 204 367 318 666 80 212 146 364 186 429 42 67
302 276 383 306 46 18 141 7 235 -25z m750 -66 c78 -53 158 -123 259 -229 85
-90 191 -218 191 -231 0 -2 -40 37 -90 87 l-90 91 -24 -31 c-14 -17 -38 -45
-54 -62 l-29 -31 -79 80 c-43 44 -107 103 -141 131 -60 49 -75 68 -53 68 6 0
19 9 30 20 11 11 17 20 14 20 -4 0 5 11 19 24 14 13 23 27 19 31 -4 5 4 5 18
2 l25 -6 -25 22 c-14 12 -37 30 -50 39 -44 31 10 8 60 -25z m1543 9 c11 12
195 -49 292 -96 220 -106 343 -214 432 -378 34 -62 105 -186 109 -191 2 -2 11
2 19 9 14 12 15 11 4 -14 -10 -21 -10 -29 -1 -35 15 -9 -7 -42 -47 -71 l-29
-20 -17 51 c-23 69 -108 171 -276 333 -107 102 -167 151 -250 202 -60 37 -109
71 -109 76 0 4 -9 8 -21 8 -14 0 -19 5 -16 14 4 10 0 12 -15 8 -15 -4 -19 -2
-13 7 5 10 2 11 -14 6 -16 -5 -21 -2 -21 13 0 11 -6 25 -14 31 -11 9 -15 8
-21 -6 -6 -17 -7 -17 -16 0 -6 9 -14 15 -20 12 -5 -4 -9 -1 -9 4 0 6 -9 11
-20 11 -11 0 -20 7 -20 15 0 18 12 19 28 3 9 -9 13 -7 18 5 4 12 11 14 24 7 9
-5 20 -7 23 -4z m1521 -227 c151 -448 204 -809 193 -1314 -4 -148 -11 -317
-17 -375 -24 -232 -83 -510 -153 -715 l-24 -70 -16 38 c-76 179 -152 524 -182
822 -19 190 -19 249 1 286 10 21 15 53 13 102 -1 51 4 86 17 119 17 42 17 52
5 95 -14 50 -14 54 -5 141 3 28 1 65 -4 82 -7 18 -7 32 -1 35 14 9 11 77 -5
123 -10 27 -11 43 -4 50 17 17 10 101 -11 143 -12 22 -16 41 -11 44 6 3 10 16
10 29 0 16 16 33 57 62 74 50 97 104 91 210 -4 57 -12 86 -43 146 l-37 76 23
41 c23 42 23 42 36 18 6 -13 37 -98 67 -188z m-4464 165 c0 -3 -18 -27 -41
-52 -22 -26 -57 -82 -77 -124 -21 -43 -39 -78 -42 -78 -9 0 -75 198 -69 205 8
7 187 53 212 54 9 1 17 -2 17 -5z m1143 -75 c100 -51 236 -165 345 -289 82
-93 172 -209 172 -220 0 -4 -35 28 -77 72 -47 48 -79 74 -82 66 -5 -16 -29
-36 -60 -48 -14 -6 -21 -16 -18 -24 3 -8 -2 -20 -11 -28 -11 -9 -14 -10 -8 0
4 7 2 12 -5 12 -8 0 -7 5 2 18 13 15 12 16 -3 4 -13 -10 -15 -19 -8 -38 11
-27 -1 -32 -20 -9 -7 8 -18 15 -24 15 -6 0 -5 -4 3 -9 8 -5 10 -14 6 -21 -5
-9 -4 -11 3 -6 8 5 10 1 5 -10 -5 -13 -24 2 -92 72 -47 49 -119 120 -158 158
-40 37 -73 70 -73 73 0 3 34 40 75 82 l74 77 -32 25 c-61 48 -52 51 -175 -62
-56 -52 -59 -54 -80 -40 -11 6 -1 20 37 56 110 102 131 110 204 74z m-1383
-114 c27 -79 40 -135 37 -153 -6 -30 -70 -206 -107 -290 -15 -35 -32 -57 -47
-63 -56 -21 -58 -19 -113 152 -28 89 -71 216 -96 282 -24 66 -43 122 -41 124
6 5 281 71 303 72 18 1 27 -16 64 -124z m2855 59 c-11 -8 -37 -17 -57 -21 -21
-3 -41 -10 -45 -16 -3 -5 -2 -8 3 -5 5 3 37 8 70 12 50 5 63 3 68 -9 3 -9 0
-15 -9 -15 -7 0 -17 -5 -21 -12 -4 -7 -3 -8 5 -4 7 4 19 5 29 1 14 -5 14 -7 2
-15 -13 -8 -12 -10 2 -10 14 0 48 -45 48 -64 0 -3 -26 -13 -57 -21 -32 -9 -92
-27 -133 -41 -41 -13 -80 -24 -85 -24 -11 0 -55 101 -55 127 0 8 5 33 12 54
10 34 15 39 42 39 17 0 63 9 101 19 89 24 107 25 80 5z m-3266 -41 c11 -22
181 -527 181 -539 0 -13 -299 -89 -309 -78 -9 11 -25 51 -126 337 -43 119 -76
219 -74 222 6 5 279 72 301 74 10 1 21 -7 27 -16z m3580 -47 c-2 -3 -27 -14
-54 -26 l-50 -21 45 6 c32 4 41 2 30 -5 -11 -7 -7 -10 20 -10 39 -1 92 -30 54
-30 -16 0 -15 -2 6 -13 14 -7 37 -36 52 -68 24 -51 192 -444 281 -659 115
-280 347 -805 450 -1020 128 -269 257 -520 294 -575 27 -39 11 -34 -84 32
-171 116 -271 202 -302 257 -78 141 -125 234 -155 313 -19 49 -85 207 -149
353 -153 353 -362 840 -486 1135 -56 132 -107 253 -115 270 l-13 30 76 16 c84
18 106 21 100 15z m-3945 -68 c49 -133 176 -503 176 -514 0 -14 7 -12 -164
-59 -72 -19 -133 -32 -136 -28 -10 12 -195 520 -203 557 -2 8 254 81 295 85
11 1 22 -13 32 -41z m-1779 -28 c7 -52 12 -58 34 -37 8 6 5 -1 -4 -16 -18 -28
-18 -31 0 -82 9 -29 14 -58 11 -64 -4 -6 4 -21 17 -33 28 -27 73 -99 133 -212
25 -47 25 -50 11 -85 -33 -76 -29 -161 7 -161 20 0 34 27 42 79 4 22 10 41 15
41 13 0 46 -70 63 -136 8 -32 24 -115 36 -184 11 -69 22 -136 25 -150 3 -14
12 -77 20 -140 8 -63 20 -141 26 -174 15 -84 37 -254 49 -376 6 -58 15 -143
20 -190 14 -121 13 -150 -5 -150 -21 0 -19 -23 7 -55 21 -27 22 -36 21 -253 0
-197 -2 -227 -17 -237 -20 -15 -21 -57 -1 -96 13 -24 16 -81 18 -320 l2 -291
-38 44 c-21 23 -54 68 -74 98 -20 30 -57 87 -83 125 -41 62 -76 125 -170 301
-79 147 -203 487 -259 706 -168 659 -153 1391 40 2001 17 53 35 97 39 97 5 0
11 -22 15 -50z m3796 -31 c88 -65 245 -229 343 -359 l79 -105 -104 100 c-57
55 -98 94 -92 86 10 -12 4 -22 -32 -53 -41 -36 -62 -70 -33 -52 7 4 8 3 4 -5
-4 -6 -12 -8 -18 -5 -8 5 -9 1 -4 -11 5 -15 4 -16 -8 -6 -8 7 -12 20 -9 29 6
14 5 15 -9 2 -13 -13 -11 -20 20 -65 l36 -50 -45 40 c-24 22 -86 81 -139 131
-52 50 -116 110 -142 134 -27 23 -48 47 -48 53 0 6 3 8 6 5 3 -3 33 25 67 62
34 37 69 69 77 69 10 1 0 15 -25 38 -53 47 -12 27 76 -38z m2179 5 c0 -8 5
-12 10 -9 6 3 10 2 10 -4 0 -6 16 -18 36 -27 21 -10 33 -22 30 -30 -3 -7 0
-11 8 -8 28 11 249 -249 319 -376 32 -58 36 -73 35 -132 -1 -50 4 -74 19 -97
23 -37 80 -81 105 -81 15 0 18 -9 18 -55 0 -71 20 -120 58 -139 23 -12 29 -21
25 -36 -7 -26 15 -106 33 -121 9 -7 14 -33 14 -71 0 -50 4 -63 25 -84 21 -21
28 -41 35 -107 17 -142 41 -278 70 -402 30 -125 116 -413 129 -430 15 -19 30
-75 20 -75 -8 0 -10 7 -8 26 0 3 -6 11 -14 17 -14 11 -241 487 -235 492 2 1
12 7 23 13 19 10 19 11 1 18 -10 4 -21 2 -25 -5 -8 -13 -8 -13 -130 257 -85
187 -176 400 -361 842 -44 107 -94 226 -111 264 -35 82 -35 81 -8 83 28 2 43
18 34 33 -5 7 -20 10 -40 7 -36 -6 -40 -1 -89 128 -15 39 -34 82 -42 98 -9 16
-11 27 -5 27 6 0 11 -7 11 -16z m-4559 -49 c9 -28 43 -120 74 -205 92 -252
105 -289 105 -303 0 -10 -47 -26 -151 -52 -82 -20 -152 -36 -153 -34 -14 14
-202 567 -195 572 7 7 283 75 293 73 5 -1 17 -24 27 -51z m4151 -36 c17 -41
38 -95 48 -121 l18 -47 -83 -26 c-46 -14 -90 -25 -100 -25 -25 0 -118 31 -131
44 -6 6 -23 43 -38 81 -16 39 -32 76 -38 82 -12 15 -13 15 151 63 69 20 130
34 134 30 4 -4 22 -40 39 -81z m-350 -68 c15 -33 30 -71 34 -86 7 -26 6 -27
-27 -20 -19 4 -90 25 -159 47 -123 40 -125 41 -95 54 28 12 188 60 210 63 6 0
22 -26 37 -58z m1748 0 c0 -11 -61 -60 -155 -127 -101 -70 -225 -198 -263
-269 -17 -33 -32 -52 -32 -41 0 22 50 123 90 181 16 23 62 73 102 110 103 95
258 183 258 146z m-3430 -37 c146 -98 296 -248 442 -444 80 -108 109 -160 39
-73 -42 54 -206 225 -196 206 6 -14 -24 -62 -39 -63 -5 0 -1 9 9 20 20 22 8
28 -14 8 -11 -10 -13 -10 -7 0 10 16 -2 15 -20 -2 -19 -19 -18 -34 4 -39 9 -3
-3 -3 -28 0 -40 5 -57 17 -151 104 -148 137 -140 119 -79 185 l51 57 -42 39
c-52 48 -40 49 31 2z m3410 -123 c0 -10 -8 -29 -19 -42 -23 -30 -280 -204
-288 -196 -12 13 84 122 152 173 62 47 125 82 148 84 4 0 7 -8 7 -19z m-1249
-81 c21 -47 38 -92 38 -102 1 -11 -15 -21 -46 -32 -25 -9 -47 -15 -48 -13 -1
1 -15 26 -30 55 -16 29 -46 71 -67 94 -21 23 -36 43 -34 45 8 9 121 41 135 40
8 -1 32 -40 52 -87z m-2373 43 c131 -80 298 -245 442 -438 97 -130 122 -185
32 -72 -27 34 -74 89 -105 122 l-55 60 -26 -24 c-25 -24 -38 -17 -14 7 9 9 9
12 1 12 -7 0 -14 -8 -18 -19 -7 -23 -45 -59 -45 -42 0 7 -5 9 -10 6 -6 -4 -7
-11 -4 -17 5 -7 2 -8 -6 -3 -10 6 -8 12 8 26 19 15 20 18 5 23 -10 4 -20 0
-26 -10 -9 -15 -13 -14 -36 13 -14 16 -70 69 -124 118 l-98 88 51 51 52 51
-38 33 c-20 17 -45 32 -54 32 -10 0 -39 -25 -65 -55 -45 -53 -75 -70 -75 -41
0 7 22 37 48 65 59 62 77 64 160 14z m2057 -73 c60 -29 86 -63 155 -199 57
-115 208 -381 280 -496 61 -98 312 -521 382 -645 141 -250 263 -500 284 -583
4 -19 9 -25 14 -17 4 7 13 9 20 5 13 -8 12 11 -6 105 l-7 35 51 -48 c60 -55
233 -169 382 -252 58 -32 129 -71 157 -87 l53 -29 -31 -62 c-156 -310 -420
-678 -647 -905 -64 -64 -84 -74 -61 -30 6 12 8 20 4 16 -5 -4 -15 -2 -23 5
-13 9 -14 9 -8 0 4 -7 2 -13 -3 -13 -6 0 -11 5 -11 10 0 6 -1 13 -2 17 -2 3 7
7 19 8 13 1 26 4 29 8 3 3 -6 5 -22 3 -16 -2 -36 4 -46 14 -15 13 -16 22 -8
51 13 43 13 80 1 61 -5 -8 -6 8 -3 39 3 37 2 50 -7 45 -6 -4 -11 -16 -11 -27
0 -10 -4 -19 -10 -19 -5 0 -10 -8 -10 -17 -1 -16 -2 -16 -15 1 -11 15 -15 16
-15 5 0 -8 6 -21 12 -27 19 -19 -23 -10 -55 11 -34 22 -43 22 -26 0 13 -16 12
-17 -3 -5 -9 8 -14 20 -11 28 7 18 8 18 41 -2 26 -16 25 -15 -3 9 -29 25 -51
36 -42 20 3 -5 -1 -13 -8 -20 -10 -10 -14 -9 -19 3 -3 8 -2 13 3 10 18 -11 21
27 4 40 -16 13 -15 14 10 10 24 -4 27 -3 17 10 -7 7 -9 14 -5 14 5 0 6 2 3 5
-3 3 -36 -13 -74 -35 -67 -39 -162 -80 -187 -80 -7 0 -18 9 -25 20 -11 18 -9
21 20 34 55 23 181 146 166 161 -2 3 -21 -7 -41 -20 -58 -40 -186 -82 -289
-96 -179 -23 -402 20 -620 119 -183 83 -380 249 -497 418 l-33 49 43 -46 c24
-26 71 -68 104 -95 33 -27 69 -59 80 -71 39 -43 250 -173 355 -220 95 -42 231
-84 252 -77 11 3 18 2 15 -2 -3 -5 9 -10 26 -11 24 -2 28 0 17 7 -10 7 6 10
53 10 40 0 66 4 62 9 -3 5 -23 8 -45 6 -45 -4 -64 11 -26 21 24 6 79 -7 123
-28 13 -6 26 -8 30 -5 3 4 -2 7 -13 7 -16 0 -17 2 -4 10 11 7 6 10 -20 10 -19
0 -42 5 -50 10 -11 8 -4 9 25 6 22 -3 65 -2 95 2 l55 8 -75 6 c-109 9 -300 41
-300 50 0 4 -7 4 -17 1 -10 -4 -14 -2 -10 4 5 7 0 9 -12 6 -45 -12 -174 55
-138 71 7 3 2 3 -10 0 -13 -3 -23 -1 -23 5 0 6 -26 23 -57 38 -119 56 -337
202 -382 257 -7 8 -20 12 -29 9 -9 -3 -14 -3 -10 1 9 10 -23 46 -41 46 -8 0
-12 2 -9 5 3 3 -10 21 -29 41 -60 64 -93 120 -80 133 9 10 8 11 -5 6 -13 -5
-18 -2 -18 10 0 15 4 14 38 -6 20 -12 42 -28 48 -35 6 -8 13 -11 16 -8 3 3 27
-9 54 -25 26 -17 53 -31 59 -31 6 0 22 -10 35 -22 14 -13 26 -22 27 -20 7 6
53 -11 64 -24 6 -8 23 -14 38 -14 20 0 23 -2 11 -10 -13 -8 -12 -10 5 -11 11
-1 26 -1 33 0 6 1 12 -4 12 -11 0 -10 3 -9 9 1 8 12 12 12 24 2 21 -17 31 3
15 29 -7 11 -16 20 -19 20 -4 0 -10 12 -13 26 -4 15 -9 24 -12 21 -4 -3 -27
20 -53 51 -27 32 -77 79 -112 105 -411 308 -476 351 -640 433 -133 66 -126 61
-112 75 10 10 91 -6 103 -22 10 -13 78 -29 96 -23 17 6 17 5 4 -7 -8 -8 -13
-13 -11 -12 2 1 13 -3 24 -9 17 -9 19 -8 14 6 -6 14 -3 15 14 6 17 -10 18 -14
7 -28 -7 -9 -8 -14 -3 -9 4 4 16 0 26 -9 14 -12 21 -13 36 -4 16 9 15 10 -7 5
-20 -5 -22 -4 -10 5 12 10 12 11 -5 5 -15 -5 -17 -3 -9 5 16 16 55 -5 48 -25
-6 -15 11 -22 19 -7 2 4 3 2 2 -3 -4 -15 63 -80 72 -70 5 4 2 10 -4 12 -7 3
-13 9 -13 15 0 6 6 6 15 -2 8 -7 15 -9 15 -5 0 4 7 2 15 -5 9 -7 18 -11 20 -8
10 9 -7 38 -21 38 -8 0 -14 4 -14 9 0 5 -17 20 -37 32 -21 13 -40 26 -43 30
-3 4 -17 10 -32 14 -15 4 -26 12 -25 17 3 14 -75 58 -91 53 -7 -3 -11 -1 -8 4
3 4 -14 17 -37 27 -23 10 -45 23 -48 28 -4 5 -14 6 -23 3 -21 -8 -21 16 -1 37
18 18 40 70 25 61 -13 -8 -13 -4 6 40 14 34 8 30 -63 -43 -69 -70 -159 -132
-193 -132 -5 0 5 22 24 49 43 61 73 120 97 190 26 73 23 85 -6 31 -13 -25 -24
-41 -25 -37 0 5 5 17 11 29 23 43 0 25 -44 -36 -51 -69 -144 -158 -191 -183
-63 -33 -246 -12 -405 46 -263 96 -557 325 -644 500 -28 58 -32 75 -32 151 0
74 3 91 27 131 15 25 45 58 68 74 38 26 49 29 123 28 95 0 202 -33 372 -112
166 -78 220 -150 196 -262 -17 -79 -47 -127 -99 -160 -39 -24 -54 -29 -87 -24
-31 4 -35 3 -20 -5 14 -7 1 -8 -45 -4 -36 4 -73 11 -83 16 -10 5 -26 11 -35
13 -36 7 -102 38 -97 45 3 5 -12 14 -32 21 -40 12 -105 68 -97 81 7 12 -24 40
-36 33 -14 -9 -51 56 -47 82 2 12 0 20 -4 17 -5 -3 -9 0 -9 5 0 6 5 11 11 11
8 0 8 4 1 13 -12 15 -7 79 9 109 11 20 8 19 -23 -7 -121 -102 -72 -272 120
-416 31 -24 62 -49 69 -57 7 -8 19 -12 29 -8 15 6 15 4 3 -11 -7 -10 -10 -15
-5 -11 5 4 31 -10 60 -31 43 -32 108 -71 186 -112 162 -84 324 -127 463 -123
48 2 95 8 105 14 13 8 9 10 -23 9 -22 -1 -71 7 -110 19 -38 11 -87 24 -108 28
-22 3 -34 10 -28 13 7 4 -7 17 -31 31 -24 13 -49 31 -56 39 -10 14 -11 14 -5
-3 5 -15 3 -17 -7 -11 -10 6 -12 4 -7 -8 4 -11 2 -14 -8 -11 -19 8 -46 64 -38
78 16 25 12 37 -10 30 -25 -8 -23 -5 18 21 25 15 28 16 16 2 -7 -9 -9 -17 -3
-17 15 0 33 26 24 35 -4 5 0 6 9 2 17 -6 39 9 39 26 0 5 -8 4 -17 -3 -10 -7 3
8 30 33 26 25 47 51 47 56 0 6 11 44 25 85 22 65 24 81 15 122 -15 66 -33 96
-84 141 -40 35 -196 120 -254 138 -13 4 -22 8 -20 10 11 12 779 -200 837 -230
14 -7 37 -25 51 -40 14 -15 45 -37 70 -50 99 -50 458 -156 770 -228 245 -57
268 -61 255 -50 -85 77 -149 112 -310 169 l-120 43 53 0 c32 1 52 -3 52 -10 0
-8 4 -8 15 1 17 14 112 6 182 -15 25 -8 40 -9 37 -3 -14 23 -152 103 -228 132
-76 30 -83 35 -108 81 -111 201 -96 431 37 561 49 49 126 94 160 94 12 0 36 3
53 6 24 5 29 10 25 28 -4 19 -3 18 11 -4 l15 -25 1 29 c0 20 4 27 14 23 7 -3
19 0 26 6 10 9 12 8 7 -5 -8 -22 11 -24 19 -3 4 8 11 15 16 15 6 0 5 -7 -2
-15 -7 -9 -11 -18 -8 -20 3 -3 11 1 18 10 10 12 10 18 0 30 -9 10 -9 15 -1 15
6 0 11 5 11 10 0 6 -8 10 -17 10 -10 0 -25 5 -33 11 -11 8 12 9 83 6 72 -4
109 -11 142 -27z m-3021 -54 c9 -30 16 -61 16 -70 0 -9 -32 -78 -72 -154 -39
-75 -81 -156 -92 -179 -12 -23 -24 -42 -27 -43 -12 0 -157 405 -148 414 4 4
279 82 301 85 4 1 14 -23 22 -53z m4620 -51 c-9 -14 -51 -50 -93 -79 -91 -65
-160 -135 -195 -196 -34 -60 -34 -24 -1 49 32 68 137 172 231 227 72 43 87 43
58 -1z m-3849 21 c62 -26 161 -104 248 -196 100 -105 183 -210 166 -210 -7 0
-48 36 -92 80 -45 44 -83 77 -86 74 -3 -3 1 -9 8 -13 8 -6 9 -11 3 -15 -6 -3
-13 -2 -17 4 -9 15 -22 12 -22 -5 0 -8 4 -12 8 -9 4 2 10 0 14 -6 3 -5 -1 -10
-10 -10 -8 0 -18 -6 -21 -14 -4 -11 -13 -12 -34 -6 -23 7 -28 5 -23 -6 11 -28
-18 -13 -87 47 -39 33 -68 64 -65 70 3 5 0 6 -8 3 -8 -3 -20 2 -27 11 -10 12
-10 15 3 15 11 0 14 6 10 16 -6 16 34 67 47 59 5 -3 10 2 14 10 3 8 1 15 -5
15 -6 0 -7 5 -3 11 3 6 18 8 33 5 25 -6 25 -6 -8 23 -61 54 -78 51 -146 -23
-46 -49 -64 -63 -78 -58 -16 7 -16 11 11 48 38 52 88 94 113 94 11 0 35 -7 54
-14z m-1112 -118 c19 -57 54 -162 78 -234 l43 -131 -19 -59 c-10 -33 -18 -67
-17 -76 0 -14 -16 -23 -71 -39 -40 -11 -85 -25 -101 -30 -17 -5 -33 -6 -37 -2
-10 11 -219 584 -219 600 0 2 8 3 18 3 9 0 71 16 137 34 66 19 127 34 136 35
12 1 26 -27 52 -101z m3758 45 c6 -16 26 -62 45 -104 19 -42 34 -79 34 -81 0
-7 -89 -32 -94 -27 -10 11 -108 200 -105 203 5 4 90 33 102 35 4 0 12 -11 18
-26z m-4146 -50 c6 -18 68 -185 162 -446 28 -77 43 -131 37 -136 -10 -10 -266
-81 -290 -81 -18 0 -25 15 -107 246 -108 302 -122 343 -115 349 4 5 275 81
299 84 4 1 10 -7 14 -16z m4298 -306 c26 -60 45 -113 42 -118 -4 -5 -16 -9
-28 -9 -17 1 -35 24 -82 103 -33 56 -60 106 -60 111 0 11 68 36 76 27 3 -3 27
-55 52 -114z m-5116 -437 c104 -291 210 -594 260 -740 31 -91 207 -567 233
-630 51 -125 151 -345 237 -524 34 -71 60 -133 56 -139 -3 -6 -1 -7 5 -3 12 7
16 -5 13 -31 -1 -7 3 -13 9 -13 5 0 10 -7 10 -15 0 -9 9 -25 20 -37 18 -20 24
-38 18 -54 -2 -3 5 -10 15 -15 9 -6 17 -14 17 -19 0 -13 180 -345 250 -460 32
-52 65 -111 75 -130 10 -19 40 -68 67 -109 l50 -73 -43 -44 c-24 -24 -47 -44
-51 -44 -4 0 -20 26 -36 58 -31 62 -90 171 -102 187 -4 6 -27 48 -51 95 -23
47 -54 103 -68 125 -84 136 -302 609 -427 927 -107 274 -304 836 -417 1188
-46 146 -125 391 -176 545 -50 154 -91 284 -90 290 1 15 10 -10 126 -335z
m1326 167 c2 -7 1 -35 -3 -62 -4 -28 -4 -51 1 -53 5 -2 9 -10 9 -18 0 -8 7
-14 15 -14 8 0 15 -4 15 -10 0 -15 -16 -12 -34 6 -13 13 -16 13 -16 1 0 -24
28 -41 44 -28 8 7 25 9 39 6 22 -6 25 -4 20 14 -3 13 -1 21 6 21 7 0 9 5 6 10
-3 6 -1 10 4 10 11 0 15 -27 13 -90 -1 -25 2 -31 8 -20 9 14 14 7 11 -13 -1
-5 3 -6 8 -2 12 7 3 35 -10 35 -5 0 -9 5 -9 12 0 7 15 -3 34 -21 33 -32 33
-32 17 -64 -24 -47 -47 -78 -54 -71 -3 3 -10 -3 -16 -14 -6 -11 -29 -24 -53
-31 -74 -19 -81 -33 -14 -27 l58 6 -23 -37 c-67 -106 -85 -132 -90 -133 -4 0
-15 19 -24 43 -40 99 -185 488 -185 495 0 5 25 15 57 21 31 7 72 19 92 26 47
17 68 18 74 2z m370 7 c3 -3 -12 -29 -34 -57 -35 -47 -37 -53 -22 -64 24 -18
38 -16 22 4 -13 15 -12 15 8 2 16 -9 21 -20 18 -34 -3 -11 2 -7 11 10 10 17
19 25 21 18 4 -10 8 -9 19 2 9 8 13 18 10 23 -2 4 -1 14 3 21 6 9 15 -5 30
-43 35 -95 65 -149 158 -286 9 -14 -7 1 -36 33 -30 32 -62 62 -72 68 -29 15
-27 12 29 -57 5 -5 22 -29 37 -52 15 -23 30 -40 33 -38 2 3 14 -6 24 -20 13
-16 24 -22 32 -16 7 7 21 -3 41 -28 37 -47 65 -63 107 -62 l33 0 -38 -19 c-21
-11 -46 -17 -56 -14 -9 3 -60 51 -112 108 -52 56 -161 168 -242 250 l-148 148
47 54 c43 51 62 63 77 49z m-586 -226 c33 -90 82 -222 108 -295 l48 -132 -26
-35 c-15 -19 -41 -39 -59 -44 -147 -46 -210 -64 -212 -61 -2 2 -51 135 -110
294 -59 160 -112 301 -117 314 -6 13 -6 27 -2 31 8 8 249 78 304 89 3 0 33
-72 66 -161z m578 -158 c21 -22 37 -42 34 -44 -79 -81 -410 -413 -470 -471
-92 -90 -92 -88 0 44 36 51 84 119 105 150 105 149 272 361 286 361 3 0 23
-18 45 -40z m177 -205 c4 -23 -287 -209 -502 -322 l-65 -34 59 55 c32 31 75
65 95 76 l36 20 -39 -35 c-48 -43 -39 -45 19 -5 24 17 48 30 54 30 6 0 11 4
11 9 0 5 15 19 33 30 18 11 44 29 56 41 13 11 28 20 32 20 4 0 18 10 31 23 13
12 39 33 58 47 19 13 38 29 42 35 4 5 8 6 8 2 0 -5 6 -2 14 6 16 16 55 17 58
2z m-1503 -975 c150 -414 232 -619 342 -858 16 -35 29 -65 29 -68 0 -15 268
-546 314 -621 31 -51 56 -95 56 -99 0 -6 -50 34 -176 141 -39 33 -107 89 -150
125 -43 36 -158 133 -254 215 -96 83 -272 231 -390 329 -221 184 -300 252
-300 262 0 3 10 -2 22 -10 12 -9 36 -16 53 -16 32 0 165 27 297 61 99 25 106
24 121 -8 6 -16 15 -30 19 -33 3 -3 19 -29 35 -59 45 -86 52 -96 64 -93 6 1 8
-2 4 -7 -6 -10 21 -71 31 -71 3 0 2 5 -2 12 -4 6 -3 8 3 5 5 -3 18 -24 28 -47
10 -22 22 -40 27 -40 5 0 6 -4 3 -10 -7 -12 19 -53 28 -44 4 4 5 -3 2 -14 -2
-15 0 -19 11 -15 8 3 14 -1 14 -9 0 -24 86 -161 144 -228 31 -36 56 -69 56
-74 0 -5 6 -14 13 -20 8 -6 38 -39 67 -74 29 -34 55 -60 58 -58 2 3 -27 62
-66 133 -345 635 -534 1124 -750 1943 -57 216 -42 185 76 -160 65 -190 142
-410 171 -490z m-530 18 c0 -301 -3 -549 -7 -552 -17 -10 -30 1165 -14 1295 7
61 7 57 13 -66 4 -71 7 -376 8 -677z m2017 783 c-7 -10 63 -285 79 -311 4 -7
0 -10 -11 -8 -21 3 -38 37 -95 187 -39 105 -39 120 -1 121 6 0 12 5 12 10 0 6
5 10 11 10 5 0 8 -4 5 -9z m332 -8 c16 -4 20 -8 12 -13 -8 -5 -9 -10 -2 -14 6
-4 16 3 22 14 6 11 15 20 21 20 6 0 3 -7 -6 -16 -15 -15 -15 -18 1 -35 10 -11
20 -16 23 -13 3 4 0 9 -6 11 -7 3 -13 9 -13 15 0 5 14 0 30 -12 17 -12 36 -23
43 -24 31 -7 45 -19 40 -33 -5 -12 -3 -14 7 -8 10 6 12 2 8 -19 -4 -21 -3 -24
8 -15 13 11 18 6 15 -13 0 -5 4 -8 10 -8 6 0 9 -8 7 -17 -2 -10 2 -22 9 -28
29 -23 46 -147 29 -215 -6 -22 -5 -23 4 -5 8 16 9 11 4 -20 -6 -43 -42 -115
-57 -115 -5 0 -6 8 -3 17 4 10 -5 5 -23 -12 -16 -17 -34 -31 -40 -31 -6 -1
-15 -2 -21 -3 -5 0 -10 -8 -10 -16 0 -36 -20 -10 -41 53 -56 171 -134 345
-183 411 -30 41 -33 80 -8 108 34 39 70 50 120 36z m-1066 -134 l-59 -114 -32
77 c-34 84 -38 108 -18 108 6 0 46 11 87 24 41 13 76 23 78 21 1 -1 -24 -54
-56 -116z m654 -24 c9 -27 27 -76 40 -107 13 -32 24 -60 24 -62 0 -7 -253 -86
-274 -86 -39 0 -10 20 57 40 147 44 172 53 182 63 12 11 15 12 -145 -37 -69
-21 -119 -31 -124 -26 -8 8 31 30 55 30 18 0 201 62 196 66 -2 3 -62 -11 -132
-31 -196 -55 -172 -27 32 37 51 15 95 33 98 38 3 5 0 8 -7 5 -49 -16 -260 -75
-268 -75 -47 0 130 66 228 86 18 4 30 10 25 15 -4 4 -41 -1 -82 -11 -40 -10
-92 -21 -115 -24 l-41 -6 45 15 c25 8 77 24 115 34 59 16 70 22 71 40 1 19 -3
22 -23 16 -16 -4 -22 -2 -18 5 3 5 13 10 21 10 11 0 14 6 9 23 -12 43 14 -5
31 -58z m-1777 -37 c1 -20 5 -39 10 -42 5 -4 12 -24 16 -46 4 -22 11 -38 16
-34 5 3 9 -3 9 -13 0 -58 172 -741 200 -792 15 -30 -1 -48 -50 -56 -19 -3 -53
-12 -75 -19 l-40 -14 30 -5 c17 -3 0 -3 -37 -1 -48 2 -68 0 -68 -8 0 -8 -3 -8
-9 -3 -6 6 -11 243 -13 563 -2 304 0 543 4 530 3 -13 6 -40 7 -60z m1411 -67
c0 -7 -153 -68 -218 -86 -13 -4 -21 -9 -18 -12 3 -3 59 9 125 27 66 17 126 30
133 28 6 -2 -41 -21 -105 -42 -64 -21 -120 -43 -124 -49 -4 -7 0 -8 13 -3 50
19 209 57 228 54 12 -2 -7 -11 -49 -23 -72 -19 -179 -63 -158 -64 6 -1 24 4
39 9 34 13 170 50 184 50 5 0 10 -4 10 -10 0 -5 -7 -10 -16 -10 -8 0 -46 -12
-82 -26 -37 -14 -80 -30 -95 -36 -15 -6 -26 -12 -24 -14 2 -3 54 12 116 33 94
31 114 35 121 23 6 -10 4 -18 -6 -23 -21 -12 -275 -97 -289 -97 -8 0 -87 171
-81 177 3 3 280 101 289 102 4 1 7 -3 7 -8z m1390 -52 c0 -5 11 -7 25 -5 26 5
35 -8 13 -18 -7 -3 -1 -3 15 -1 19 2 27 -1 27 -11 0 -8 6 -14 14 -14 13 0 70
-49 73 -64 0 -4 12 -20 25 -35 43 -49 88 -154 95 -221 5 -57 4 -63 -11 -57
-13 5 -15 2 -10 -18 5 -21 3 -24 -10 -19 -9 4 -16 3 -15 -2 11 -60 -5 -50
-160 107 -88 89 -165 158 -170 154 -6 -3 -14 2 -18 12 -3 10 -14 26 -25 36
-23 23 -25 62 -2 53 12 -5 15 -2 10 10 -3 9 3 29 14 44 11 16 20 32 19 37 -3
16 2 18 46 20 25 1 45 -2 45 -8z m-919 -106 c36 -78 58 -147 50 -156 -4 -4
-67 -27 -141 -52 -102 -34 -136 -42 -142 -32 -11 17 -78 185 -78 196 0 13 224
89 267 90 17 1 28 -10 44 -46z m-321 -159 c23 -58 40 -107 38 -109 -15 -12
-304 -103 -310 -97 -9 9 -90 213 -86 217 2 1 44 14 93 28 50 15 115 35 145 46
30 11 60 20 67 20 6 1 30 -47 53 -105z m518 -35 c10 -25 114 -158 125 -158 5
-1 5 3 2 9 -3 5 0 7 8 4 7 -2 26 0 40 5 44 17 30 -2 -16 -23 -47 -20 -35 -34
15 -17 17 6 45 11 62 10 25 -1 19 -4 -26 -16 -32 -8 -58 -19 -58 -25 0 -5 8
-7 18 -4 9 3 40 8 67 11 36 5 46 4 35 -4 -8 -6 -21 -11 -27 -11 -7 0 -27 -9
-45 -21 -29 -18 -30 -20 -8 -15 99 24 157 12 65 -14 -63 -18 -66 -30 -3 -14
46 12 52 12 64 -4 11 -15 8 -18 -24 -29 l-37 -11 40 4 40 5 32 -73 c50 -115
55 -105 -82 -154 -66 -24 -120 -42 -121 -41 -1 1 -20 47 -43 102 l-40 100 20
21 c22 23 12 41 -16 30 -19 -7 -27 9 -96 189 -51 132 -56 151 -41 157 30 12
42 9 50 -13z m-55 -164 c72 -183 73 -185 50 -185 -15 0 -16 -2 -3 -10 12 -7
12 -12 2 -22 -19 -19 -14 -29 15 -26 24 3 29 -3 59 -72 58 -133 65 -119 -88
-173 -73 -26 -138 -47 -144 -47 -13 0 -84 169 -84 199 0 10 7 24 15 31 20 17
8 33 -20 26 -21 -5 -26 6 -83 152 -34 86 -63 163 -64 171 -2 9 40 28 137 61
77 26 143 45 146 41 4 -3 31 -69 62 -146z m-334 -133 c69 -181 67 -166 26
-190 -61 -36 -39 -51 44 -30 13 3 90 -159 90 -192 1 -10 -40 -30 -129 -62 -71
-27 -133 -48 -137 -48 -12 0 -252 526 -265 579 -2 9 43 29 147 65 l150 51 13
-23 c7 -12 35 -80 61 -150z m964 82 c-5 -13 -2 -15 17 -9 17 5 28 1 44 -17 11
-13 17 -17 11 -9 -7 11 -7 13 2 8 16 -10 73 -111 73 -129 0 -16 -42 -36 -174
-83 l-78 -29 -18 24 c-9 13 -28 52 -40 88 -22 63 -23 65 -5 78 10 8 23 14 29
14 5 0 7 3 4 6 -4 3 -16 0 -28 -6 -16 -8 -25 -9 -33 -1 -10 10 -3 14 123 69
14 6 37 11 52 11 21 1 26 -3 21 -15z m1786 -869 c12 -12 8 -14 -499 -192 -579
-204 -2446 -823 -2481 -823 -17 0 110 100 146 116 19 8 35 11 35 7 0 -5 4 -2
9 5 8 14 35 18 61 10 8 -3 12 -3 8 -1 -19 11 -4 23 44 38 60 17 69 18 48 5
-29 -19 12 -11 55 10 22 11 33 19 25 17 -8 -3 -26 -7 -40 -11 -15 -3 -11 1 10
10 19 9 45 17 57 18 12 0 19 3 17 6 -3 2 72 30 166 60 93 31 173 60 177 63 3
4 13 7 22 6 10 0 6 -4 -8 -10 -13 -5 -21 -12 -18 -15 9 -9 47 6 47 20 0 15 66
40 81 30 7 -4 9 -3 6 3 -6 10 68 30 112 31 13 1 29 6 35 12 8 8 4 9 -16 1 -16
-6 -28 -8 -28 -6 0 13 54 25 64 15 16 -16 30 -12 16 5 -13 16 -8 18 50 17 19
-1 21 1 6 5 -12 3 77 37 229 89 137 46 252 84 255 84 3 -1 -6 -7 -20 -15 -14
-8 -20 -14 -15 -14 14 0 63 28 50 29 -13 0 16 20 30 20 6 0 3 -5 -5 -10 -9 -6
-10 -10 -3 -10 6 0 19 7 27 16 9 8 16 11 16 5 0 -6 7 -8 16 -4 13 5 13 7 2 15
-8 5 -2 6 16 2 18 -4 27 -3 23 3 -6 9 109 50 126 45 4 -1 7 3 7 9 0 6 9 9 20
6 11 -3 20 -1 20 4 0 5 12 11 28 15 39 9 115 36 129 46 7 5 13 4 15 -3 4 -12
313 84 392 122 22 10 43 19 48 19 5 0 29 10 54 21 94 45 195 69 263 64 35 -2
66 -7 70 -10z m46 -214 c-11 -5 -23 -7 -27 -4 -5 2 -8 -1 -8 -8 0 -8 15 -10
50 -6 40 4 50 3 50 -9 0 -9 -4 -12 -10 -9 -5 3 -10 1 -10 -4 0 -14 13 -14 27
0 6 6 21 9 34 6 23 -4 22 -5 -8 -18 -18 -7 -33 -17 -33 -21 0 -11 14 -10 26 1
5 5 27 12 49 16 38 6 39 5 16 -8 l-24 -14 34 -11 c19 -6 48 -13 64 -17 17 -3
38 -8 48 -11 9 -3 17 -1 17 5 0 6 -14 11 -32 11 -35 0 -34 8 3 15 13 3 26 1
29 -4 9 -15 45 -17 42 -3 -1 8 2 11 8 7 8 -5 7 -11 -1 -22 -11 -12 -9 -13 14
-8 23 6 27 4 27 -15 0 -16 4 -21 16 -16 14 5 15 4 5 -8 -10 -12 -9 -19 6 -35
10 -12 26 -30 36 -41 9 -11 14 -20 11 -20 -3 0 -2 -5 1 -11 5 -7 14 -4 27 7
15 14 21 15 27 6 6 -10 11 -9 22 4 9 12 10 15 2 10 -7 -4 -13 -3 -13 2 0 6 7
12 15 16 8 3 15 1 15 -5 0 -6 7 -6 19 1 36 19 34 10 -3 -15 -20 -14 -60 -42
-89 -63 -123 -90 -394 -241 -562 -314 -391 -169 -805 -276 -1232 -317 -141
-14 -522 -15 -679 -1 -203 18 -474 57 -474 69 0 9 91 47 180 75 44 13 80 20
80 15 0 -5 3 -8 8 -7 4 1 16 -3 27 -9 24 -12 181 -25 213 -17 26 7 30 39 6 48
-31 12 3 34 172 113 25 12 48 17 60 12 26 -10 136 -11 152 0 8 5 12 17 10 27
-3 16 -14 20 -61 22 -36 2 -57 7 -57 15 0 8 -4 6 -11 -3 -9 -13 -10 -13 -7 0
5 17 60 46 104 55 24 5 22 3 -11 -14 -22 -10 -33 -20 -24 -20 19 -1 149 38
149 44 0 2 -19 2 -42 0 -33 -4 -38 -3 -23 5 33 16 297 117 335 128 19 6 121
40 225 77 381 135 752 257 839 275 48 10 91 21 94 24 3 4 19 6 36 5 26 0 28
-2 11 -8z"/>
<path d="M3980 7218 c-68 -16 -130 -34 -137 -40 -20 -16 -15 -56 8 -79 18 -18
28 -20 74 -14 l53 6 15 -48 c9 -26 32 -104 52 -173 42 -143 56 -170 88 -170
22 0 67 32 67 48 0 5 -24 91 -54 192 -30 101 -53 187 -51 191 3 3 22 9 43 13
52 8 67 27 56 69 -9 29 -14 32 -49 34 -22 0 -96 -12 -165 -29z"/>
<path d="M3707 7163 c-41 -11 -39 -44 19 -240 78 -267 82 -277 122 -281 68 -7
76 26 36 157 -113 379 -114 380 -177 364z"/>
<path d="M3206 7038 c-12 -19 -55 -125 -81 -203 -6 -16 -11 -9 -26 35 -40 116
-49 130 -85 130 -29 0 -64 -21 -64 -37 0 -11 152 -467 161 -485 11 -21 68 -25
87 -6 16 16 15 57 -3 108 -18 52 -19 91 -2 113 11 16 22 8 106 -78 60 -61 102
-95 115 -95 30 1 68 36 64 59 -2 11 -56 74 -120 140 l-117 120 36 96 c36 94
37 98 18 111 -29 22 -72 17 -89 -8z"/>
<path d="M2808 6954 c-36 -19 -35 -33 6 -164 18 -58 31 -107 29 -110 -2 -2
-54 46 -115 108 -95 96 -115 112 -143 112 -33 0 -65 -25 -65 -52 0 -8 16 -61
36 -117 19 -56 51 -154 70 -218 44 -145 49 -153 96 -153 62 0 64 19 19 164
-21 69 -36 126 -32 126 3 -1 58 -52 121 -115 96 -96 120 -115 145 -115 36 0
55 16 55 44 0 12 -32 122 -70 245 -39 123 -70 225 -70 227 0 8 -33 34 -43 34
-7 -1 -24 -8 -39 -16z"/>
<path d="M2372 6860 c-45 -19 -43 -29 55 -340 25 -80 52 -157 59 -172 17 -33
43 -42 79 -28 25 9 27 14 23 48 -10 74 -140 467 -160 485 -23 19 -24 19 -56 7z"/>
<path d="M2127 6764 c-14 -14 -7 -24 27 -38 19 -8 42 -26 52 -41 17 -26 16
-31 -5 -128 -24 -106 -25 -158 -4 -164 7 -3 14 6 17 19 44 210 48 246 30 283
-9 20 -26 43 -38 50 -28 18 -70 28 -79 19z"/>
<path d="M2266 6391 c-5 -8 19 -92 142 -491 82 -268 365 -1087 380 -1102 4 -4
14 -3 21 2 12 7 8 27 -26 122 -80 221 -192 546 -262 758 -62 191 -98 307 -196
633 -24 80 -43 105 -59 78z"/>
<path d="M3016 4217 c2 -44 99 -297 240 -627 93 -217 116 -263 132 -268 24 -7
11 34 -83 254 -53 122 -106 251 -119 286 -43 113 -156 382 -164 390 -4 4 -7
-12 -6 -35z"/>
<path d="M5435 3048 c-258 -89 -433 -151 -725 -258 -107 -40 -277 -101 -377
-136 -101 -35 -196 -70 -213 -79 -30 -16 -39 -38 -20 -50 12 -7 40 3 670 232
234 85 483 175 553 199 150 52 187 69 187 89 0 17 -30 18 -75 3z"/>
<path d="M5585 2929 c-55 -20 -372 -134 -585 -209 -322 -114 -775 -281 -783
-289 -11 -11 2 -41 19 -41 7 0 48 14 91 31 80 31 665 242 1098 395 132 47 245
90 252 95 17 15 4 39 -21 38 -11 -1 -43 -10 -71 -20z"/>
<path d="M5835 2828 c-16 -6 -111 -39 -210 -74 -283 -98 -395 -144 -395 -160
0 -8 -9 -14 -19 -14 -11 0 -22 -4 -26 -10 -9 -15 72 11 545 178 118 41 166 63
168 75 4 20 -17 21 -63 5z"/>
<path d="M3780 2530 c-13 -8 -12 -14 5 -47 30 -56 88 -112 123 -119 26 -5 31
-12 34 -37 4 -41 47 -70 125 -86 32 -6 78 -23 102 -36 47 -27 56 -27 47 2 -10
30 -55 55 -135 78 -71 19 -76 22 -82 53 -8 39 -26 62 -48 62 -31 0 -82 41
-113 90 -33 53 -35 55 -58 40z"/>
<path d="M1475 5528 c-11 -34 -25 -165 -25 -232 0 -67 2 -75 21 -81 12 -4 26
-2 32 4 23 23 36 288 15 309 -16 16 -38 15 -43 0z"/>
<path d="M1714 3756 c-8 -20 17 -91 64 -186 28 -56 42 -75 57 -75 34 0 22 60
-31 170 -48 97 -76 127 -90 91z"/>
<path d="M6369 1761 c-42 -15 -89 -31 -105 -34 -16 -3 -46 -13 -67 -22 -33
-13 -36 -18 -27 -35 6 -11 21 -20 33 -20 20 0 272 82 281 91 2 2 6 13 8 24 5
30 -34 29 -123 -4z"/>
<path d="M5885 1629 c-114 -24 -147 -37 -143 -58 5 -23 70 -20 191 8 90 21 97
24 97 47 0 30 -17 30 -145 3z"/>
<path d="M1132 6928 c-43 -53 -155 -361 -226 -623 -68 -246 -101 -417 -131
-660 -34 -276 -38 -704 -9 -965 17 -156 50 -363 74 -460 6 -25 13 -58 15 -74
8 -50 108 -386 135 -451 4 -11 23 -60 41 -110 114 -312 338 -718 543 -985 283
-369 623 -699 991 -962 232 -165 556 -351 765 -438 41 -17 93 -40 115 -50 109
-49 437 -158 600 -199 110 -28 361 -75 450 -85 411 -47 649 -52 1050 -21 22 2
81 9 130 15 667 82 1331 325 1880 686 145 95 229 155 233 165 2 5 10 9 17 9 7
0 15 3 17 8 2 4 23 23 48 42 115 88 296 250 292 262 -1 4 3 8 10 8 6 0 53 42
104 94 51 51 96 91 100 87 4 -3 4 2 1 12 -4 9 -2 17 4 17 16 0 180 185 244
276 11 15 27 35 35 44 8 9 16 22 17 28 2 7 15 24 31 39 25 25 49 57 77 102 5
9 19 30 31 46 43 64 106 168 135 225 25 49 28 64 19 75 -26 32 -33 25 -125
-130 -57 -97 -213 -321 -269 -389 -273 -326 -432 -486 -683 -687 -50 -41 -113
-91 -140 -113 -80 -64 -380 -258 -510 -330 -511 -281 -1039 -445 -1678 -523
-177 -21 -688 -24 -880 -5 -408 40 -807 141 -1201 302 -386 158 -702 342
-1034 600 -278 216 -624 564 -821 825 -377 498 -659 1161 -762 1795 -46 278
-52 360 -51 690 0 335 10 456 60 750 54 312 174 730 280 968 28 64 30 88 8 96
-21 8 -20 8 -32 -6z"/>
</g>
</svg>
